<svg width="171" height="59" viewBox="0 0 171 59" fill="none" xmlns="http://www.w3.org/2000/svg">
<path fill-rule="evenodd" clip-rule="evenodd" d="M39.1718 26.1933C38.6515 27.1932 38.3574 28.3296 38.3574 29.5347C38.3574 30.7106 38.6374 31.821 39.1344 32.803L24.665 47.2725L29.4229 52.0304L29.423 52.0302L34.3829 56.9902C31.6722 59.6772 27.2966 59.67 24.595 56.9683L2.03173 34.4051C-0.67724 31.6961 -0.677228 27.304 2.03173 24.595L19.8026 6.82408L39.1718 26.1933ZM11.6302 24.7215L11.6223 24.7136L6.86432 29.4716L6.87224 29.4795L6.86432 29.4874L11.6223 34.2453L11.6301 34.2373L20.7947 43.4019L25.5526 38.644L16.388 29.4794L25.5526 20.315L20.7947 15.5571L11.6302 24.7215Z" fill="url(#paint0_linear_22_13)"/>
<path d="M24.595 2.03173C27.304 -0.677246 31.6961 -0.677243 34.4051 2.03173L56.9683 24.595C59.6773 27.304 59.6773 31.6961 56.9683 34.4051L39.141 52.2324L34.1809 47.2723L44.7229 36.7302C45.0125 36.7654 45.3073 36.7836 45.6063 36.7836C49.6098 36.7836 52.8552 33.5382 52.8552 29.5347C52.8552 25.5312 49.6098 22.2857 45.6063 22.2857C45.3413 22.2857 45.0797 22.3 44.822 22.3277L24.5605 2.06621L24.595 2.03173Z" fill="url(#paint1_linear_22_13)"/>
<path d="M155.133 11.4491C155.005 8.5616 157.376 6.08657 162.327 6.08657C164.93 6.08657 168.153 6.62798 169.984 7.40143L168.772 11.5007C166.709 10.8304 163.951 10.2374 161.811 10.2374C160.883 10.2374 160.109 10.521 160.084 11.1913C160.084 11.7843 160.625 12.0937 161.502 12.2999C163.152 12.6351 165.395 13.0734 166.916 13.7179C169.159 14.5945 170.422 16.4508 170.499 18.2297C170.654 21.1172 168.256 23.6438 163.28 23.6438C160.651 23.6438 157.531 23.0766 155.649 22.3032L156.861 18.1523C158.923 18.8742 161.734 19.4414 163.873 19.4414C164.776 19.4414 165.549 19.132 165.549 18.4875C165.549 17.9203 165.008 17.5851 164.157 17.4047C162.481 17.018 160.238 16.6054 158.691 15.9867C156.423 15.1101 155.185 13.3054 155.133 11.4491Z" fill="url(#paint2_linear_22_13)"/>
<path d="M139.547 17.6883V6.26707H144.42V17.6883C144.42 18.9 145.374 19.6477 146.637 19.6477C147.797 19.6477 148.803 18.9 148.803 17.6883V6.26707H153.701V17.6883C153.701 21.5813 150.479 23.6438 146.637 23.6438C142.744 23.6438 139.547 21.5813 139.547 17.6883Z" fill="url(#paint3_linear_22_13)"/>
<path d="M124.055 23.4376V6.24129H131.841C135.605 6.24129 138.338 8.81944 138.338 12.3773C138.338 16.0125 135.399 18.5133 131.841 18.5133H128.928V23.4376H124.055ZM131.506 10.5726H128.928V14.2594H131.506C132.589 14.2594 133.491 13.5117 133.491 12.3773C133.491 11.3203 132.614 10.5726 131.506 10.5726Z" fill="url(#paint4_linear_22_13)"/>
<path d="M102.591 23.4376V6.24129H107.489L112.13 14.1562L116.796 6.24129H121.721V23.4376H116.796V14.2078L112.13 22.0196L107.489 14.2078V23.4376H102.591Z" fill="url(#paint5_linear_22_13)"/>
<path d="M84.2435 23.4376L89.735 6.24129H96.0257L101.543 23.4376H96.4382L95.6905 21.0399H90.0701L89.3225 23.4376H84.2435ZM94.5561 16.7859L92.8545 11.3203L91.2045 16.7859H94.5561Z" fill="url(#paint6_linear_22_13)"/>
<path d="M66.5932 14.8523C66.5932 9.69602 70.5635 6.03504 75.8745 6.03504C80.0511 6.03504 83.3254 8.20069 84.6145 11.6039L79.4582 13.5633C78.8652 11.4492 77.2667 10.4953 75.6167 10.4953C73.0643 10.5726 71.6463 12.5836 71.6463 14.8266C71.6463 17.5336 73.6057 19.1836 75.823 19.1836C77.9628 19.1836 79.6644 17.9719 80.5152 16.0125L84.5887 18.0493C83.016 21.504 80.2058 23.6438 75.8745 23.6438C70.7955 23.6438 66.5932 20.0086 66.5932 14.8523Z" fill="url(#paint7_linear_22_13)"/>
<path d="M140.879 38.9779C140.879 30.7789 147.16 25.0274 155.686 25.0274C164.129 25.0274 170.493 30.7789 170.493 38.9779C170.493 47.2177 163.803 52.8876 155.686 52.8876C147.65 52.8876 140.879 47.1361 140.879 38.9779ZM162.702 38.9779C162.702 34.8172 159.642 31.7579 155.686 31.7579C151.688 31.7579 148.711 34.8172 148.711 38.9779C148.711 43.1794 151.851 46.1163 155.686 46.1163C159.52 46.1163 162.702 43.1794 162.702 38.9779Z" fill="url(#paint8_linear_22_13)"/>
<path d="M117.265 52.5612V25.3538H129.583C135.539 25.3538 139.863 29.4329 139.863 35.062C139.863 40.8135 135.213 44.7702 129.583 44.7702H124.974V52.5612H117.265ZM129.053 32.2066H124.974V38.0397H129.053C130.766 38.0397 132.194 36.8568 132.194 35.062C132.194 33.3896 130.807 32.2066 129.053 32.2066Z" fill="url(#paint9_linear_22_13)"/>
<path d="M92.7057 52.5612V25.3946H113.999V32.2066H100.374V35.5515H112.489V41.7924H100.374V45.8715H114.202V52.5612H92.7057Z" fill="url(#paint10_linear_22_13)"/>
<path d="M78.7488 32.2066H74.2618V38.0397H78.7488C80.462 38.0397 81.8081 36.8568 81.8081 35.062C81.8081 33.3896 80.462 32.2066 78.7488 32.2066ZM74.2618 52.5612H66.5931V25.3538H79.2791C85.1529 25.3538 89.5991 29.4329 89.5991 35.062C89.5991 38.6924 87.6412 41.6293 84.8674 43.1793L90.3741 52.5612H82.5423L78.0145 44.7702H74.2618V52.5612Z" fill="url(#paint11_linear_22_13)"/>
<defs>
<linearGradient id="paint0_linear_22_13" x1="29.5" y1="0" x2="29.5" y2="59" gradientUnits="userSpaceOnUse">
<stop stop-color="#419EBD"/>
<stop offset="1" stop-color="#063F5C"/>
</linearGradient>
<linearGradient id="paint1_linear_22_13" x1="29.5" y1="0" x2="29.5" y2="59" gradientUnits="userSpaceOnUse">
<stop stop-color="#419EBD"/>
<stop offset="1" stop-color="#063F5C"/>
</linearGradient>
<linearGradient id="paint2_linear_22_13" x1="162.817" y1="6.08657" x2="162.817" y2="23.6438" gradientUnits="userSpaceOnUse">
<stop stop-color="#FFBF00"/>
<stop offset="1" stop-color="#ED8B02"/>
</linearGradient>
<linearGradient id="paint3_linear_22_13" x1="146.624" y1="6.26707" x2="146.624" y2="23.6438" gradientUnits="userSpaceOnUse">
<stop stop-color="#FFBF00"/>
<stop offset="1" stop-color="#ED8B02"/>
</linearGradient>
<linearGradient id="paint4_linear_22_13" x1="131.196" y1="6.24129" x2="131.196" y2="23.4376" gradientUnits="userSpaceOnUse">
<stop stop-color="#FFBF00"/>
<stop offset="1" stop-color="#ED8B02"/>
</linearGradient>
<linearGradient id="paint5_linear_22_13" x1="112.156" y1="6.24129" x2="112.156" y2="23.4376" gradientUnits="userSpaceOnUse">
<stop stop-color="#FFBF00"/>
<stop offset="1" stop-color="#ED8B02"/>
</linearGradient>
<linearGradient id="paint6_linear_22_13" x1="92.8932" y1="6.24129" x2="92.8932" y2="23.4376" gradientUnits="userSpaceOnUse">
<stop stop-color="#FFBF00"/>
<stop offset="1" stop-color="#ED8B02"/>
</linearGradient>
<linearGradient id="paint7_linear_22_13" x1="75.6038" y1="6.03504" x2="75.6038" y2="23.6438" gradientUnits="userSpaceOnUse">
<stop stop-color="#FFBF00"/>
<stop offset="1" stop-color="#ED8B02"/>
</linearGradient>
<linearGradient id="paint8_linear_22_13" x1="155.686" y1="25.0274" x2="155.686" y2="52.8876" gradientUnits="userSpaceOnUse">
<stop stop-color="#419EBD"/>
<stop offset="1" stop-color="#063F5C"/>
</linearGradient>
<linearGradient id="paint9_linear_22_13" x1="128.564" y1="25.3538" x2="128.564" y2="52.5612" gradientUnits="userSpaceOnUse">
<stop stop-color="#419EBD"/>
<stop offset="1" stop-color="#063F5C"/>
</linearGradient>
<linearGradient id="paint10_linear_22_13" x1="103.454" y1="25.3946" x2="103.454" y2="52.5612" gradientUnits="userSpaceOnUse">
<stop stop-color="#419EBD"/>
<stop offset="1" stop-color="#063F5C"/>
</linearGradient>
<linearGradient id="paint11_linear_22_13" x1="78.4836" y1="25.3538" x2="78.4836" y2="52.5612" gradientUnits="userSpaceOnUse">
<stop stop-color="#419EBD"/>
<stop offset="1" stop-color="#063F5C"/>
</linearGradient>
</defs>
</svg>
